<mxfile host="65bd71144e">
    <diagram id="sW2wRpXnix23nlqOmmL8" name="Page-1">
        <mxGraphModel dx="585" dy="587" grid="1" gridSize="10" guides="1" tooltips="1" connect="1" arrows="1" fold="1" page="1" pageScale="1" pageWidth="850" pageHeight="1100" math="0" shadow="0">
            <root>
                <mxCell id="0"/>
                <mxCell id="1" parent="0"/>
                <mxCell id="4" style="edgeStyle=orthogonalEdgeStyle;rounded=0;orthogonalLoop=1;jettySize=auto;html=1;exitX=0.5;exitY=1;exitDx=0;exitDy=0;entryX=0.501;entryY=0.155;entryDx=0;entryDy=0;entryPerimeter=0;" edge="1" parent="1" source="2" target="3">
                    <mxGeometry relative="1" as="geometry"/>
                </mxCell>
                <mxCell id="2" value="&lt;font style=&quot;font-size: 22px&quot;&gt;Start&lt;/font&gt;" style="rounded=1;whiteSpace=wrap;html=1;arcSize=50;fillColor=#f5f5f5;strokeColor=#666666;fontColor=#333333;" vertex="1" parent="1">
                    <mxGeometry x="365" y="60" width="120" height="60" as="geometry"/>
                </mxCell>
                <mxCell id="6" style="edgeStyle=orthogonalEdgeStyle;rounded=0;orthogonalLoop=1;jettySize=auto;html=1;exitX=0.5;exitY=1;exitDx=0;exitDy=0;entryX=0.5;entryY=0;entryDx=0;entryDy=0;" edge="1" parent="1" source="3" target="5">
                    <mxGeometry relative="1" as="geometry"/>
                </mxCell>
                <mxCell id="3" value="input Enter a number&lt;br&gt;&lt;b&gt;num&lt;/b&gt;" style="html=1;strokeWidth=2;shape=manualInput;whiteSpace=wrap;rounded=1;size=26;arcSize=11;fillColor=#f5f5f5;strokeColor=#666666;fontColor=#333333;" vertex="1" parent="1">
                    <mxGeometry x="365" y="210" width="120" height="72" as="geometry"/>
                </mxCell>
                <mxCell id="8" style="edgeStyle=orthogonalEdgeStyle;rounded=0;orthogonalLoop=1;jettySize=auto;html=1;exitX=0;exitY=0.5;exitDx=0;exitDy=0;entryX=0.5;entryY=0;entryDx=0;entryDy=0;" edge="1" parent="1" source="5" target="7">
                    <mxGeometry relative="1" as="geometry">
                        <mxPoint x="250" y="385.57142857142867" as="targetPoint"/>
                    </mxGeometry>
                </mxCell>
                <mxCell id="12" style="edgeStyle=orthogonalEdgeStyle;rounded=0;orthogonalLoop=1;jettySize=auto;html=1;exitX=1;exitY=0.5;exitDx=0;exitDy=0;entryX=0.5;entryY=0;entryDx=0;entryDy=0;entryPerimeter=0;" edge="1" parent="1" source="5" target="11">
                    <mxGeometry relative="1" as="geometry">
                        <mxPoint x="560" y="385.57142857142867" as="targetPoint"/>
                    </mxGeometry>
                </mxCell>
                <mxCell id="5" value="num &amp;gt;=0" style="rhombus;whiteSpace=wrap;html=1;fillColor=#f5f5f5;strokeColor=#666666;fontColor=#333333;" vertex="1" parent="1">
                    <mxGeometry x="380" y="340" width="90" height="90" as="geometry"/>
                </mxCell>
                <mxCell id="10" style="edgeStyle=orthogonalEdgeStyle;rounded=0;orthogonalLoop=1;jettySize=auto;html=1;exitX=1;exitY=0.5;exitDx=0;exitDy=0;entryX=0.5;entryY=0;entryDx=0;entryDy=0;entryPerimeter=0;" edge="1" parent="1" source="7" target="9">
                    <mxGeometry relative="1" as="geometry"/>
                </mxCell>
                <mxCell id="14" style="edgeStyle=orthogonalEdgeStyle;rounded=0;orthogonalLoop=1;jettySize=auto;html=1;exitX=0;exitY=0.5;exitDx=0;exitDy=0;entryX=0.5;entryY=0;entryDx=0;entryDy=0;entryPerimeter=0;" edge="1" parent="1" source="7" target="13">
                    <mxGeometry relative="1" as="geometry">
                        <mxPoint x="150" y="475.57142857142867" as="targetPoint"/>
                    </mxGeometry>
                </mxCell>
                <mxCell id="7" value="num ==0" style="rhombus;whiteSpace=wrap;html=1;fillColor=#f5f5f5;strokeColor=#666666;fontColor=#333333;" vertex="1" parent="1">
                    <mxGeometry x="210" y="430" width="90" height="90" as="geometry"/>
                </mxCell>
                <mxCell id="18" style="edgeStyle=orthogonalEdgeStyle;rounded=0;orthogonalLoop=1;jettySize=auto;html=1;exitX=0.5;exitY=1;exitDx=0;exitDy=0;exitPerimeter=0;" edge="1" parent="1" source="9">
                    <mxGeometry relative="1" as="geometry">
                        <mxPoint x="375" y="740" as="targetPoint"/>
                    </mxGeometry>
                </mxCell>
                <mxCell id="9" value="print(&quot;Zero&quot;)" style="strokeWidth=2;html=1;shape=mxgraph.flowchart.display;whiteSpace=wrap;fillColor=#f5f5f5;strokeColor=#666666;fontColor=#333333;" vertex="1" parent="1">
                    <mxGeometry x="325" y="570" width="100" height="60" as="geometry"/>
                </mxCell>
                <mxCell id="17" style="edgeStyle=orthogonalEdgeStyle;rounded=0;orthogonalLoop=1;jettySize=auto;html=1;exitX=0.5;exitY=1;exitDx=0;exitDy=0;exitPerimeter=0;entryX=1;entryY=0.5;entryDx=0;entryDy=0;entryPerimeter=0;" edge="1" parent="1" source="11" target="21">
                    <mxGeometry relative="1" as="geometry">
                        <mxPoint x="570" y="740" as="targetPoint"/>
                    </mxGeometry>
                </mxCell>
                <mxCell id="11" value="print(&quot;Positive number&quot;)" style="strokeWidth=2;html=1;shape=mxgraph.flowchart.display;whiteSpace=wrap;fillColor=#f5f5f5;strokeColor=#666666;fontColor=#333333;" vertex="1" parent="1">
                    <mxGeometry x="520" y="445" width="100" height="60" as="geometry"/>
                </mxCell>
                <mxCell id="19" style="edgeStyle=orthogonalEdgeStyle;rounded=0;orthogonalLoop=1;jettySize=auto;html=1;exitX=0.5;exitY=1;exitDx=0;exitDy=0;exitPerimeter=0;entryX=0;entryY=0.5;entryDx=0;entryDy=0;entryPerimeter=0;" edge="1" parent="1" source="13" target="20">
                    <mxGeometry relative="1" as="geometry">
                        <mxPoint x="160" y="760" as="targetPoint"/>
                    </mxGeometry>
                </mxCell>
                <mxCell id="13" value="print(&quot;Negative number&quot;)" style="strokeWidth=2;html=1;shape=mxgraph.flowchart.display;whiteSpace=wrap;fillColor=#f5f5f5;strokeColor=#666666;fontColor=#333333;" vertex="1" parent="1">
                    <mxGeometry x="110" y="570" width="100" height="60" as="geometry"/>
                </mxCell>
                <mxCell id="15" value="&lt;span style=&quot;font-size: 22px&quot;&gt;End&lt;/span&gt;" style="rounded=1;whiteSpace=wrap;html=1;arcSize=50;fillColor=#f5f5f5;strokeColor=#666666;fontColor=#333333;" vertex="1" parent="1">
                    <mxGeometry x="400" y="860" width="120" height="60" as="geometry"/>
                </mxCell>
                <mxCell id="22" style="edgeStyle=orthogonalEdgeStyle;rounded=0;orthogonalLoop=1;jettySize=auto;html=1;exitX=1;exitY=0.5;exitDx=0;exitDy=0;exitPerimeter=0;entryX=0;entryY=0.5;entryDx=0;entryDy=0;entryPerimeter=0;" edge="1" parent="1" source="20" target="21">
                    <mxGeometry relative="1" as="geometry"/>
                </mxCell>
                <mxCell id="20" value="" style="verticalLabelPosition=bottom;verticalAlign=top;html=1;shape=mxgraph.flowchart.on-page_reference;fillColor=#f5f5f5;strokeColor=#666666;fontColor=#333333;" vertex="1" parent="1">
                    <mxGeometry x="365" y="740" width="20" height="20" as="geometry"/>
                </mxCell>
                <mxCell id="23" style="edgeStyle=orthogonalEdgeStyle;rounded=0;orthogonalLoop=1;jettySize=auto;html=1;exitX=0.5;exitY=1;exitDx=0;exitDy=0;exitPerimeter=0;entryX=0.5;entryY=0;entryDx=0;entryDy=0;" edge="1" parent="1" source="21" target="15">
                    <mxGeometry relative="1" as="geometry"/>
                </mxCell>
                <mxCell id="21" value="" style="verticalLabelPosition=bottom;verticalAlign=top;html=1;shape=mxgraph.flowchart.on-page_reference;fillColor=#f5f5f5;strokeColor=#666666;fontColor=#333333;" vertex="1" parent="1">
                    <mxGeometry x="450" y="740" width="20" height="20" as="geometry"/>
                </mxCell>
                <mxCell id="24" value="&lt;font style=&quot;font-size: 19px&quot;&gt;True&lt;/font&gt;" style="text;html=1;strokeColor=none;fillColor=none;align=center;verticalAlign=middle;whiteSpace=wrap;rounded=0;" vertex="1" parent="1">
                    <mxGeometry x="510" y="360" width="40" height="20" as="geometry"/>
                </mxCell>
                <mxCell id="25" value="&lt;font style=&quot;font-size: 19px&quot;&gt;True&lt;/font&gt;" style="text;html=1;strokeColor=none;fillColor=none;align=center;verticalAlign=middle;whiteSpace=wrap;rounded=0;" vertex="1" parent="1">
                    <mxGeometry x="325" y="450" width="40" height="20" as="geometry"/>
                </mxCell>
                <mxCell id="26" value="&lt;span style=&quot;font-size: 19px&quot;&gt;False&lt;/span&gt;" style="text;html=1;strokeColor=none;fillColor=none;align=center;verticalAlign=middle;whiteSpace=wrap;rounded=0;" vertex="1" parent="1">
                    <mxGeometry x="300" y="360" width="40" height="20" as="geometry"/>
                </mxCell>
                <mxCell id="27" value="&lt;span style=&quot;font-size: 19px&quot;&gt;False&lt;/span&gt;" style="text;html=1;strokeColor=none;fillColor=none;align=center;verticalAlign=middle;whiteSpace=wrap;rounded=0;" vertex="1" parent="1">
                    <mxGeometry x="170" y="445" width="40" height="20" as="geometry"/>
                </mxCell>
            </root>
        </mxGraphModel>
    </diagram>
</mxfile>